<?xml version="1.0" encoding="UTF-8" standalone="no"?>
<svg width="675px" height="378px" viewBox="0 0 675 378" version="1.1" xmlns="http://www.w3.org/2000/svg" xmlns:xlink="http://www.w3.org/1999/xlink">
    <!-- Generator: Sketch 43.1 (39012) - http://www.bohemiancoding.com/sketch -->
    <title>Group 3</title>
    <desc>Created with Sketch.</desc>
    <defs>
        <filter x="-4.7%" y="-9.2%" width="109.4%" height="118.0%" filterUnits="objectBoundingBox" id="filter-1">
            <feOffset dx="0" dy="0" in="SourceAlpha" result="shadowOffsetOuter1"></feOffset>
            <feGaussianBlur stdDeviation="10" in="shadowOffsetOuter1" result="shadowBlurOuter1"></feGaussianBlur>
            <feColorMatrix values="0 0 0 0 1   0 0 0 0 1   0 0 0 0 1  0 0 0 0.3 0" type="matrix" in="shadowBlurOuter1" result="shadowMatrixOuter1"></feColorMatrix>
            <feMerge>
                <feMergeNode in="shadowMatrixOuter1"></feMergeNode>
                <feMergeNode in="SourceGraphic"></feMergeNode>
            </feMerge>
        </filter>
    </defs>
    <g id="Page-1" stroke="none" stroke-width="1" fill="none" fill-rule="evenodd" fill-opacity="0.799999952">
        <g id="Minzel---Login" transform="translate(-382.000000, -311.000000)" fill="#3E70FF">
            <g id="Group-3" filter="url(#filter-1)" transform="translate(402.000000, 331.000000)">
                <path d="M69.5114533,187.890765 C61.313791,105.962938 153.029553,22.5368527 246.31514,56.4126234 C339.600726,90.2879293 443.164062,0.397123044 548.587208,18.4129266 C695.122281,43.453439 642.667466,298.652151 488.536078,272.63015 C345.754085,248.524189 368.815819,345.808227 243.660194,337.351716 C144.909034,330.67973 76.4027875,256.761818 69.5114533,187.890765" id="Fill-1"></path>
                <path d="M564.628637,214.147342 C548.99406,294.98633 437.211219,348.616422 357.553549,289.418984 C277.895415,230.221545 152.908483,286.648322 57.0753007,239.165083 C-76.1297412,173.165536 47.2855074,-56.2825708 187.48691,12.8352476 C317.364556,76.8634517 323.161475,-22.9486638 440.638995,21.0333747 C533.332063,55.7363471 577.771386,146.191788 564.628637,214.147342" id="Fill-4"></path>
            </g>
        </g>
    </g>
</svg>